<svg version="1.1" id="Layer_1" xmlns="http://www.w3.org/2000/svg" xmlns:xlink="http://www.w3.org/1999/xlink" x="0px" y="0px"
	 width="100%" viewBox="0 0 1080 1080" enable-background="new 0 0 1080 1080" xml:space="preserve">
<path fill="#2F505F" opacity="1.000000" stroke="none" 
	d="
M598.000000,1081.000000 
	C398.689606,1081.000000 199.879227,1081.000000 1.034416,1081.000000 
	C1.034416,721.064514 1.034416,361.128967 1.034416,1.096730 
	C360.893951,1.096730 720.787903,1.096730 1080.840942,1.096730 
	C1080.840942,360.999939 1080.840942,720.999939 1080.840942,1081.000000 
	C920.128479,1081.000000 759.314270,1081.000000 598.000000,1081.000000 
M742.386841,1016.891541 
	C763.101685,1006.859497 783.816528,996.827454 804.583374,986.770203 
	C806.112000,989.505676 807.816406,992.743042 809.689392,995.879700 
	C841.134705,1048.539673 912.187256,1071.111328 972.158508,1026.025635 
	C1006.768982,1000.005859 1016.250671,962.607422 1011.390442,921.317078 
	C1008.153564,893.818420 993.040283,872.451050 971.593750,855.524841 
	C964.599976,850.005066 957.071716,845.162354 949.625061,839.894775 
	C950.345703,838.586792 950.946533,837.423950 951.611755,836.299194 
	C978.759277,790.403503 997.440125,741.252869 1006.393494,688.718689 
	C1013.497986,647.032715 1015.104980,605.048950 1010.072021,562.844177 
	C1003.548706,508.141968 987.449402,456.498444 961.821167,407.864960 
	C934.784668,356.559357 898.428528,312.714661 853.789673,275.753265 
	C817.057373,245.338593 776.242126,221.944580 731.735229,204.814911 
	C684.802185,186.751480 636.244873,177.481522 586.013489,176.026993 
	C546.074585,174.870529 507.035431,180.759613 468.248383,189.343719 
	C463.253540,190.449158 458.216461,191.363632 452.893890,192.427536 
	C438.437378,141.046921 410.072540,99.807213 366.254272,70.017235 
	C322.534149,40.293953 274.038666,26.353073 221.112427,31.244963 
	C132.386856,39.445732 52.942760,101.972542 29.132847,197.079086 
	C17.846111,242.162903 20.482260,286.666840 38.198269,329.805573 
	C63.128307,390.510590 106.805359,432.159760 168.058014,455.057068 
	C167.878143,456.188324 167.866791,456.702026 167.710526,457.167023 
	C166.968079,459.376038 166.198898,461.576294 165.416458,463.771576 
	C147.697464,513.485229 138.481934,564.689636 139.084473,617.506042 
	C139.536896,657.163330 145.605347,696.029175 156.554443,734.168396 
	C166.430435,768.569641 180.162827,801.321533 197.991364,832.324585 
	C222.032120,874.130249 252.835785,910.388611 289.074677,942.083862 
	C321.613434,970.543030 357.375427,994.126953 396.816742,1011.889587 
	C463.615570,1041.972778 533.852600,1053.282227 606.699280,1048.822510 
	C653.422668,1045.962158 698.413452,1035.092651 742.386841,1016.891541 
z"/>
<path fill="#EDEDED" opacity="1.000000" stroke="none" 
	d="
M742.037109,1017.045410 
	C698.413452,1035.092651 653.422668,1045.962158 606.699280,1048.822510 
	C533.852600,1053.282227 463.615570,1041.972778 396.816742,1011.889587 
	C357.375427,994.126953 321.613434,970.543030 289.074677,942.083862 
	C252.835785,910.388611 222.032120,874.130249 197.991364,832.324585 
	C180.162827,801.321533 166.430435,768.569641 156.554443,734.168396 
	C145.605347,696.029175 139.536896,657.163330 139.084473,617.506042 
	C138.481934,564.689636 147.697464,513.485229 165.416458,463.771576 
	C166.198898,461.576294 166.968079,459.376038 167.710526,457.167023 
	C167.866791,456.702026 167.878143,456.188324 168.058014,455.057068 
	C106.805359,432.159760 63.128307,390.510590 38.198269,329.805573 
	C20.482260,286.666840 17.846111,242.162903 29.132847,197.079086 
	C52.942760,101.972542 132.386856,39.445732 221.112427,31.244963 
	C274.038666,26.353073 322.534149,40.293953 366.254272,70.017235 
	C410.072540,99.807213 438.437378,141.046921 452.893890,192.427536 
	C458.216461,191.363632 463.253540,190.449158 468.248383,189.343719 
	C507.035431,180.759613 546.074585,174.870529 586.013489,176.026993 
	C636.244873,177.481522 684.802185,186.751480 731.735229,204.814911 
	C776.242126,221.944580 817.057373,245.338593 853.789673,275.753265 
	C898.428528,312.714661 934.784668,356.559357 961.821167,407.864960 
	C987.449402,456.498444 1003.548706,508.141968 1010.072021,562.844177 
	C1015.104980,605.048950 1013.497986,647.032715 1006.393494,688.718689 
	C997.440125,741.252869 978.759277,790.403503 951.611755,836.299194 
	C950.946533,837.423950 950.345703,838.586792 949.625061,839.894775 
	C957.071716,845.162354 964.599976,850.005066 971.593750,855.524841 
	C993.040283,872.451050 1008.153564,893.818420 1011.390442,921.317078 
	C1016.250671,962.607422 1006.768982,1000.005859 972.158508,1026.025635 
	C912.187256,1071.111328 841.134705,1048.539673 809.689392,995.879700 
	C807.816406,992.743042 806.112000,989.505676 804.583374,986.770203 
	C783.816528,996.827454 763.101685,1006.859497 742.037109,1017.045410 
M197.375229,202.827820 
	C187.767990,207.541901 182.531479,215.215073 181.390671,225.873169 
	C181.059326,228.968872 180.403366,232.180817 179.138321,234.999283 
	C173.872559,246.731171 174.984421,257.437744 182.715179,267.863556 
	C185.034348,270.991211 186.512817,275.359467 186.786072,279.270477 
	C187.583603,290.685028 194.147690,299.191956 205.196915,302.747192 
	C208.798630,303.906128 212.403854,306.018250 215.177261,308.589813 
	C221.239334,314.210724 227.826324,315.968658 235.251892,312.436951 
	C239.352676,310.486572 242.941788,310.344238 247.092377,312.408020 
	C254.084869,315.884888 260.455933,314.312927 266.527313,309.471222 
	C270.178650,306.559418 274.307709,303.912598 278.646790,302.265411 
	C288.327393,298.590424 295.267914,290.097534 295.362823,279.681000 
	C295.404907,275.061279 296.728302,271.416199 299.580658,267.862976 
	C307.519806,257.972961 308.438293,247.133133 303.600891,235.501419 
	C302.223022,232.188278 301.343353,228.547226 300.930878,224.976181 
	C299.737000,214.640945 294.231537,207.713364 285.333801,202.675369 
	C281.765625,200.655029 278.373444,197.579010 276.081512,194.186142 
	C268.556885,183.047073 255.810165,180.131348 244.912842,187.985428 
	C242.116074,190.001144 240.453552,189.982651 237.616180,188.121323 
	C225.038147,179.870193 213.951355,182.444687 206.510895,195.475555 
	C204.429932,199.120041 201.898682,201.402893 197.375229,202.827820 
M733.799133,655.506226 
	C741.472290,649.568542 747.179138,642.413147 747.179138,632.171204 
	C747.179077,611.029236 747.509094,589.867188 746.679321,568.753662 
	C746.263000,558.160522 740.733398,549.112671 729.946716,546.216797 
	C722.122803,544.116333 713.537964,543.552795 705.421570,544.127441 
	C691.455566,545.116028 682.530334,553.974304 681.582703,567.828735 
	C680.528137,583.245972 680.655945,598.752075 680.533569,614.221558 
	C680.478394,621.198792 680.737488,628.213806 681.431580,635.153931 
	C682.631897,647.156494 690.221436,655.421326 702.150757,657.320496 
	C711.558044,658.818054 719.537170,662.393921 726.138306,669.385071 
	C729.965088,673.437927 734.420471,676.897278 738.643250,680.668701 
	C745.497131,667.268372 745.496460,667.269104 735.128784,657.277222 
	C734.770203,656.931641 734.453613,656.542480 733.799133,655.506226 
M299.873749,657.734741 
	C305.924561,657.734741 311.975372,657.734741 318.470367,657.734741 
	C317.829956,655.249451 317.449707,653.654480 317.007629,652.076843 
	C312.875885,637.331604 308.810333,622.567078 304.532379,607.864319 
	C303.625641,604.747925 303.762787,602.819702 306.811981,600.843445 
	C311.549072,597.773193 315.225494,593.321106 315.636597,587.525391 
	C316.163757,580.093994 316.555359,572.505981 315.642426,565.154724 
	C314.354889,554.787231 307.177765,548.431885 296.639801,546.962769 
	C291.206818,546.205444 285.721436,545.556396 280.246307,545.427124 
	C270.003967,545.185242 259.751892,545.357483 249.299683,545.357483 
	C249.299683,582.208191 249.299683,619.481506 249.299683,657.029968 
	C257.335571,657.029968 265.208374,657.029968 273.394257,657.029968 
	C273.394257,654.860046 273.394135,653.046021 273.394287,651.231934 
	C273.395569,637.903259 273.325195,624.573669 273.506134,611.247437 
	C273.524780,609.873230 275.214233,607.298645 275.831665,607.385681 
	C277.663025,607.643921 279.521484,608.738342 281.011414,609.947083 
	C281.735504,610.534485 281.663086,612.105103 281.948822,613.231262 
	C285.220734,626.128479 288.560303,639.009277 291.723083,651.933228 
	C292.695648,655.907410 294.640442,658.192810 299.873749,657.734741 
M486.737335,602.343018 
	C485.991394,603.234924 485.245453,604.126770 484.499542,605.018677 
	C484.136566,604.879700 483.773621,604.740662 483.410645,604.601685 
	C483.410645,584.874817 483.410645,565.147949 483.410645,545.444214 
	C476.043610,545.444214 469.276031,545.444214 462.348755,545.444214 
	C462.348755,582.755005 462.348755,619.785095 462.348755,656.843567 
	C469.585968,656.843567 476.476196,656.843567 484.010101,656.843567 
	C484.010101,647.852539 483.692474,639.208496 484.173584,630.609131 
	C484.354492,627.375305 486.388153,624.245178 487.577148,621.067749 
	C488.172119,621.191406 488.767090,621.315063 489.362061,621.438721 
	C490.150726,623.753357 490.976868,626.056091 491.721283,628.384888 
	C494.456329,636.941223 497.076538,645.536072 499.968292,654.038757 
	C500.453888,655.466553 502.024475,657.513489 503.172394,657.566284 
	C510.262695,657.892822 517.375488,657.730347 525.618042,657.730347 
	C520.826294,646.538513 516.683289,636.076050 511.906067,625.911682 
	C506.465332,614.335449 507.186432,603.981567 515.450378,593.848572 
	C519.239868,589.201965 521.671875,583.448242 525.218445,577.336792 
	C517.124207,577.336792 510.170105,577.009094 503.283142,577.544495 
	C501.318024,577.697205 498.944061,579.996948 497.798340,581.929260 
	C493.985046,588.360840 490.644806,595.072876 486.737335,602.343018 
M794.972168,624.492188 
	C794.979553,628.655212 795.372253,632.868774 794.835632,636.960449 
	C794.557434,639.081970 793.112793,641.857422 791.360901,642.821289 
	C786.841125,645.307861 783.635132,642.610229 783.605652,636.501953 
	C783.519775,618.684082 783.575378,600.865601 783.553711,583.047363 
	C783.551575,581.287903 783.400513,579.528503 783.320740,577.815918 
	C775.658630,577.815918 768.569397,577.815918 761.291443,577.815918 
	C761.291443,600.281372 760.782349,622.413147 761.496216,644.505432 
	C761.879944,656.381226 770.252625,661.370483 781.668579,658.064880 
	C784.339844,657.291321 786.812561,655.812927 789.349243,654.601318 
	C790.894775,653.863037 792.387939,653.014893 794.242859,652.037964 
	C794.782471,654.119019 795.139587,655.496155 795.474182,656.786682 
	C803.010498,656.786682 810.221252,656.786682 817.423950,656.786682 
	C817.423950,630.319641 817.423950,604.268982 817.423950,578.229004 
	C809.819458,578.229004 802.591553,578.229004 794.972168,578.229004 
	C794.972168,593.576843 794.972168,608.535706 794.972168,624.492188 
M326.863159,616.500061 
	C327.012634,623.483398 326.889801,630.485962 327.379242,637.445374 
	C328.018219,646.532532 332.739319,653.252563 341.172058,656.603699 
	C350.289337,660.226868 359.772583,660.276550 368.912781,656.502075 
	C376.862549,653.219116 382.323792,647.108032 382.736237,638.465332 
	C383.385559,624.858826 383.253510,611.187927 382.806000,597.565491 
	C382.485382,587.805542 375.428436,579.501343 366.149109,577.533264 
	C361.008026,576.442932 355.541565,575.905579 350.324188,576.342224 
	C335.332092,577.597046 327.693298,585.933838 327.008881,601.024170 
	C326.790344,605.841736 326.903442,610.674377 326.863159,616.500061 
M551.857422,629.453064 
	C551.857422,626.028442 551.857422,622.603760 551.857422,618.595093 
	C563.313599,618.595093 574.026489,618.595093 585.209778,618.595093 
	C584.439087,610.203735 583.998474,602.413208 582.947693,594.705872 
	C581.563110,584.550415 575.923645,578.591248 565.637085,576.830505 
	C560.826965,576.007141 555.663879,575.903992 550.854065,576.677246 
	C537.443848,578.833252 530.385620,586.401001 529.843018,599.836975 
	C529.333740,612.451172 529.469116,625.131226 530.128418,637.740051 
	C530.644531,647.608887 537.475891,655.548279 547.040527,657.593506 
	C552.600220,658.782288 558.666687,659.103577 564.274902,658.268738 
	C578.536926,656.145813 586.136047,645.332397 584.037231,631.069336 
	C583.814941,629.559021 582.138855,627.159607 580.995850,627.074646 
	C575.393127,626.658264 569.742554,626.885803 563.681152,626.885803 
	C563.405701,630.897095 563.739563,634.691223 562.689087,638.052734 
	C562.069519,640.035400 559.233765,642.609314 557.436218,642.577393 
	C555.654236,642.545837 553.256409,639.870544 552.356079,637.816772 
	C551.422668,635.687683 551.962219,632.912903 551.857422,629.453064 
M394.900879,621.498901 
	C394.902252,624.994934 394.887695,628.491089 394.907776,631.987000 
	C394.997223,647.555420 402.249390,656.075439 417.580139,658.639526 
	C438.071075,662.066772 451.842224,649.800171 449.689117,629.853760 
	C449.528320,628.364136 447.885101,625.900879 446.806488,625.831726 
	C440.712280,625.440674 434.580017,625.642700 428.385437,625.642700 
	C428.159760,629.725464 428.008759,633.204956 427.763519,636.677795 
	C427.529480,639.992249 425.913940,643.296143 422.604065,642.611511 
	C420.647705,642.206726 418.146088,638.429016 418.045441,636.075928 
	C417.540802,624.277466 417.778320,612.448303 417.688202,600.630493 
	C417.657532,596.608765 419.318359,593.732422 422.542877,591.938171 
	C429.967529,595.554504 427.504333,602.600586 428.410553,608.213745 
	C435.781738,608.213745 442.651276,608.213745 449.742462,608.213745 
	C449.742462,604.610291 449.935333,601.443237 449.708740,598.306458 
	C448.772339,585.343445 442.748962,578.737488 429.836853,576.720703 
	C426.251923,576.160767 422.522888,575.937683 418.912933,576.225098 
	C403.600311,577.444153 395.130768,586.639465 394.919220,602.020996 
	C394.834534,608.179321 394.901733,614.339844 394.900879,621.498901 
M618.315796,552.911438 
	C611.907166,552.911438 605.498535,552.911438 598.733459,552.911438 
	C598.733459,561.391663 598.733459,569.011780 598.733459,576.432922 
	C596.317017,577.141479 593.668518,577.123901 592.419617,578.437256 
	C589.040222,581.990784 591.401123,590.652283 596.093872,592.130676 
	C599.045288,593.060425 599.327576,594.773560 599.311035,597.309570 
	C599.240479,608.134827 599.138123,618.964661 599.384155,629.785217 
	C599.512268,635.418274 600.059509,641.079346 600.931274,646.647339 
	C601.812256,652.273865 605.433105,656.298340 611.016113,657.008423 
	C618.989380,658.022522 627.089294,658.041321 635.654663,658.513794 
	C635.654663,653.940613 635.455750,650.459839 635.702148,647.010864 
	C636.054810,642.073730 633.954041,639.997131 629.049011,640.062256 
	C624.320251,640.125122 622.183167,637.358521 622.172729,632.763489 
	C622.159485,626.934448 622.116516,621.105347 622.107239,615.276306 
	C622.095398,607.835388 622.104370,600.394409 622.104370,592.667542 
	C626.068787,592.275513 629.456970,591.940430 632.854248,591.604492 
	C632.854248,586.804077 632.854248,582.364380 632.854248,577.265137 
	C630.847595,577.265137 629.043518,577.104004 627.278259,577.297424 
	C623.110168,577.754028 621.724426,576.036194 621.997620,571.890686 
	C622.336426,566.750000 622.249695,561.559692 621.948059,556.414185 
	C621.876953,555.201050 620.211182,554.081360 618.315796,552.911438 
M905.992615,604.572021 
	C909.219788,597.450500 913.028503,590.441650 912.081177,582.253418 
	C911.902161,580.705505 910.327942,578.071533 909.353699,578.051331 
	C895.898315,577.772156 882.435303,577.862671 868.809937,577.862671 
	C868.809937,583.373535 868.809937,588.393066 868.809937,593.848999 
	C875.368652,593.848999 881.467346,593.848999 887.662964,593.848999 
	C887.605103,594.786560 887.711670,595.330322 887.525757,595.741943 
	C881.912659,608.172485 876.393555,620.647888 870.587830,632.988342 
	C867.031311,640.547974 865.324707,648.279114 866.462463,656.800049 
	C881.736511,656.800049 896.753906,656.800049 911.709717,656.800049 
	C911.709717,651.493591 911.709717,646.592346 911.709717,641.059204 
	C904.347412,641.059204 897.332092,641.059204 889.690613,641.059204 
	C895.258179,628.612061 900.478088,616.942017 905.992615,604.572021 
M832.917297,621.500000 
	C832.917297,633.268982 832.917297,645.037903 832.917297,656.906677 
	C840.506226,656.906677 847.424744,656.906677 854.637939,656.906677 
	C854.637939,630.565918 854.637939,604.508240 854.637939,578.216553 
	C847.327820,578.216553 840.297180,578.216553 832.917297,578.216553 
	C832.917297,592.554504 832.917297,606.527283 832.917297,621.500000 
M837.701660,548.100403 
	C835.950806,548.187622 834.199951,548.274841 832.551453,548.356934 
	C832.551453,553.180481 832.551453,557.403381 832.551453,561.949097 
	C839.959473,562.511902 846.993103,563.046204 854.278809,563.599670 
	C854.278809,558.088928 854.278809,553.366089 854.278809,548.788696 
	C853.673279,548.497498 853.386475,548.241516 853.096252,548.237671 
	C848.282593,548.173157 843.468506,548.140320 837.701660,548.100403 
z"/>
<path fill="#365460" opacity="1.000000" stroke="none" 
	d="
M197.702698,202.655518 
	C201.898682,201.402893 204.429932,199.120041 206.510895,195.475555 
	C213.951355,182.444687 225.038147,179.870193 237.616180,188.121323 
	C240.453552,189.982651 242.116074,190.001144 244.912842,187.985428 
	C255.810165,180.131348 268.556885,183.047073 276.081512,194.186142 
	C278.373444,197.579010 281.765625,200.655029 285.333801,202.675369 
	C294.231537,207.713364 299.737000,214.640945 300.930878,224.976181 
	C301.343353,228.547226 302.223022,232.188278 303.600891,235.501419 
	C308.438293,247.133133 307.519806,257.972961 299.580658,267.862976 
	C296.728302,271.416199 295.404907,275.061279 295.362823,279.681000 
	C295.267914,290.097534 288.327393,298.590424 278.646790,302.265411 
	C274.307709,303.912598 270.178650,306.559418 266.527313,309.471222 
	C260.455933,314.312927 254.084869,315.884888 247.092377,312.408020 
	C242.941788,310.344238 239.352676,310.486572 235.251892,312.436951 
	C227.826324,315.968658 221.239334,314.210724 215.177261,308.589813 
	C212.403854,306.018250 208.798630,303.906128 205.196915,302.747192 
	C194.147690,299.191956 187.583603,290.685028 186.786072,279.270477 
	C186.512817,275.359467 185.034348,270.991211 182.715179,267.863556 
	C174.984421,257.437744 173.872559,246.731171 179.138321,234.999283 
	C180.403366,232.180817 181.059326,228.968872 181.390671,225.873169 
	C182.531479,215.215073 187.767990,207.541901 197.702698,202.655518 
M235.846527,208.767456 
	C235.686386,207.281601 235.508728,205.797394 235.369080,204.309616 
	C234.745926,197.670715 231.815201,194.672821 225.381775,194.111694 
	C220.401276,193.677322 216.016449,197.023300 214.556778,202.505295 
	C213.882736,205.036758 213.418671,207.624115 212.867157,210.150543 
	C211.060486,210.406433 209.581070,210.597427 208.107788,210.827606 
	C197.158417,212.538269 193.497070,215.889175 192.594345,226.768387 
	C192.166367,231.926025 190.588852,236.308228 188.312668,240.818665 
	C184.778946,247.820999 186.534622,256.539917 192.111877,262.049011 
	C194.208206,260.907410 196.378403,259.713104 198.560349,258.540741 
	C200.837616,257.317139 203.126205,256.114685 205.851120,254.668823 
	C206.669449,258.507324 207.351456,261.706451 208.036880,264.921570 
	C206.446091,266.014496 205.062881,266.925720 203.720566,267.893646 
	C197.030884,272.717438 195.679810,279.774719 199.954910,286.687195 
	C202.650955,291.046448 206.868958,292.541534 211.481812,292.273743 
	C216.267487,291.995911 219.399536,292.545959 220.176682,298.252411 
	C220.677841,301.932312 224.033630,303.633606 227.664597,303.580841 
	C231.509537,303.524994 234.350159,301.559692 235.369324,297.695343 
	C235.827087,295.959564 235.927383,294.089966 235.932190,292.280426 
	C235.973709,276.633575 235.956467,260.986572 235.956741,245.339615 
	C235.956772,243.553818 235.956757,241.768036 235.956757,239.287125 
	C230.271271,240.714233 225.261429,241.971741 219.953140,243.304169 
	C219.953140,239.514862 219.953140,236.388687 219.953140,233.130417 
	C221.157104,232.751434 222.237656,232.384216 223.333572,232.070694 
	C231.228638,229.811981 234.475906,226.089615 235.322327,218.109238 
	C235.619614,215.306320 235.688889,212.479218 235.846527,208.767456 
M271.291565,291.962677 
	C273.714050,291.441864 276.282135,291.268585 278.528595,290.327545 
	C283.133392,288.398621 285.205353,282.349792 283.412231,277.085480 
	C281.736359,272.165436 278.084259,270.008820 272.947723,270.906158 
	C266.514038,272.030029 265.766174,271.596375 262.511566,264.808990 
	C269.002197,258.674408 276.263397,259.213104 283.802429,262.394623 
	C289.276733,264.704834 290.596130,264.328827 293.421661,258.942352 
	C296.552582,252.973785 296.230469,246.843613 294.273621,240.540451 
	C292.667542,235.367096 291.281921,230.098846 290.224487,224.787872 
	C288.698059,217.121567 284.101990,212.309113 276.417572,211.027359 
	C274.143433,210.648041 271.858978,210.330765 269.447449,209.965073 
	C269.095764,207.797653 268.861969,205.825928 268.446228,203.893326 
	C267.133698,197.791534 262.902100,194.062927 257.493347,194.150055 
	C252.177490,194.235687 248.304703,197.756897 246.943665,203.741959 
	C243.650284,218.224426 247.062958,225.916183 260.221649,232.089813 
	C264.251709,233.980591 263.312592,237.163864 262.575378,239.512650 
	C262.160187,240.835449 258.674591,242.012436 256.693451,241.842316 
	C253.364731,241.556473 250.132797,240.143921 246.472778,239.094284 
	C246.472778,257.466888 246.465729,275.270477 246.489014,293.074066 
	C246.490524,294.230621 246.674957,295.394989 246.860291,296.541809 
	C247.539047,300.741943 250.162735,302.998077 254.258957,303.422760 
	C258.490417,303.861481 262.022034,301.724030 262.557159,297.846558 
	C263.293182,292.513062 266.324829,291.965424 271.291565,291.962677 
z"/>
<path fill="#33525F" opacity="1.000000" stroke="none" 
	d="
M733.958252,655.839966 
	C734.453613,656.542480 734.770203,656.931641 735.128784,657.277222 
	C745.496460,667.269104 745.497131,667.268372 738.643250,680.668701 
	C734.420471,676.897278 729.965088,673.437927 726.138306,669.385071 
	C719.537170,662.393921 711.558044,658.818054 702.150757,657.320496 
	C690.221436,655.421326 682.631897,647.156494 681.431580,635.153931 
	C680.737488,628.213806 680.478394,621.198792 680.533569,614.221558 
	C680.655945,598.752075 680.528137,583.245972 681.582703,567.828735 
	C682.530334,553.974304 691.455566,545.116028 705.421570,544.127441 
	C713.537964,543.552795 722.122803,544.116333 729.946716,546.216797 
	C740.733398,549.112671 746.263000,558.160522 746.679321,568.753662 
	C747.509094,589.867188 747.179077,611.029236 747.179138,632.171204 
	C747.179138,642.413147 741.472290,649.568542 733.958252,655.839966 
M722.894165,602.500000 
	C722.894165,595.001282 722.999390,587.500488 722.852478,580.004639 
	C722.771484,575.869385 722.523254,571.702881 721.893127,567.621033 
	C720.979553,561.703003 716.436951,559.274719 710.826599,561.332458 
	C705.581055,563.256348 705.629639,567.879333 705.632263,572.160522 
	C705.644592,592.480042 705.811096,612.799561 705.991516,633.118530 
	C706.041138,638.710754 708.615723,641.682739 713.328125,641.988037 
	C718.336243,642.312439 721.676819,639.666809 722.017700,633.918152 
	C722.617920,623.797058 722.633667,613.641235 722.894165,602.500000 
z"/>
<path fill="#355260" opacity="1.000000" stroke="none" 
	d="
M299.424286,657.733765 
	C294.640442,658.192810 292.695648,655.907410 291.723083,651.933228 
	C288.560303,639.009277 285.220734,626.128479 281.948822,613.231262 
	C281.663086,612.105103 281.735504,610.534485 281.011414,609.947083 
	C279.521484,608.738342 277.663025,607.643921 275.831665,607.385681 
	C275.214233,607.298645 273.524780,609.873230 273.506134,611.247437 
	C273.325195,624.573669 273.395569,637.903259 273.394287,651.231934 
	C273.394135,653.046021 273.394257,654.860046 273.394257,657.029968 
	C265.208374,657.029968 257.335571,657.029968 249.299683,657.029968 
	C249.299683,619.481506 249.299683,582.208191 249.299683,545.357483 
	C259.751892,545.357483 270.003967,545.185242 280.246307,545.427124 
	C285.721436,545.556396 291.206818,546.205444 296.639801,546.962769 
	C307.177765,548.431885 314.354889,554.787231 315.642426,565.154724 
	C316.555359,572.505981 316.163757,580.093994 315.636597,587.525391 
	C315.225494,593.321106 311.549072,597.773193 306.811981,600.843445 
	C303.762787,602.819702 303.625641,604.747925 304.532379,607.864319 
	C308.810333,622.567078 312.875885,637.331604 317.007629,652.076843 
	C317.449707,653.654480 317.829956,655.249451 318.470367,657.734741 
	C311.975372,657.734741 305.924561,657.734741 299.424286,657.733765 
M273.317200,564.007629 
	C273.317200,573.577271 273.317200,583.146912 273.317200,593.016296 
	C276.268433,593.016296 278.419617,593.074402 280.566742,593.006104 
	C289.047913,592.736511 293.000458,589.062683 293.788849,580.626404 
	C293.972900,578.657043 293.947906,576.647095 293.803864,574.671570 
	C292.954224,563.019104 284.520386,558.233215 273.317200,564.007629 
z"/>
<path fill="#365361" opacity="1.000000" stroke="none" 
	d="
M486.930267,602.010193 
	C490.644806,595.072876 493.985046,588.360840 497.798340,581.929260 
	C498.944061,579.996948 501.318024,577.697205 503.283142,577.544495 
	C510.170105,577.009094 517.124207,577.336792 525.218445,577.336792 
	C521.671875,583.448242 519.239868,589.201965 515.450378,593.848572 
	C507.186432,603.981567 506.465332,614.335449 511.906067,625.911682 
	C516.683289,636.076050 520.826294,646.538513 525.618042,657.730347 
	C517.375488,657.730347 510.262695,657.892822 503.172394,657.566284 
	C502.024475,657.513489 500.453888,655.466553 499.968292,654.038757 
	C497.076538,645.536072 494.456329,636.941223 491.721283,628.384888 
	C490.976868,626.056091 490.150726,623.753357 489.362061,621.438721 
	C488.767090,621.315063 488.172119,621.191406 487.577148,621.067749 
	C486.388153,624.245178 484.354492,627.375305 484.173584,630.609131 
	C483.692474,639.208496 484.010101,647.852539 484.010101,656.843567 
	C476.476196,656.843567 469.585968,656.843567 462.348755,656.843567 
	C462.348755,619.785095 462.348755,582.755005 462.348755,545.444214 
	C469.276031,545.444214 476.043610,545.444214 483.410645,545.444214 
	C483.410645,565.147949 483.410645,584.874817 483.410645,604.601685 
	C483.773621,604.740662 484.136566,604.879700 484.499542,605.018677 
	C485.245453,604.126770 485.991394,603.234924 486.930267,602.010193 
z"/>
<path fill="#365460" opacity="1.000000" stroke="none" 
	d="
M794.972168,623.993408 
	C794.972168,608.535706 794.972168,593.576843 794.972168,578.229004 
	C802.591553,578.229004 809.819458,578.229004 817.423950,578.229004 
	C817.423950,604.268982 817.423950,630.319641 817.423950,656.786682 
	C810.221252,656.786682 803.010498,656.786682 795.474182,656.786682 
	C795.139587,655.496155 794.782471,654.119019 794.242859,652.037964 
	C792.387939,653.014893 790.894775,653.863037 789.349243,654.601318 
	C786.812561,655.812927 784.339844,657.291321 781.668579,658.064880 
	C770.252625,661.370483 761.879944,656.381226 761.496216,644.505432 
	C760.782349,622.413147 761.291443,600.281372 761.291443,577.815918 
	C768.569397,577.815918 775.658630,577.815918 783.320740,577.815918 
	C783.400513,579.528503 783.551575,581.287903 783.553711,583.047363 
	C783.575378,600.865601 783.519775,618.684082 783.605652,636.501953 
	C783.635132,642.610229 786.841125,645.307861 791.360901,642.821289 
	C793.112793,641.857422 794.557434,639.081970 794.835632,636.960449 
	C795.372253,632.868774 794.979553,628.655212 794.972168,623.993408 
z"/>
<path fill="#345260" opacity="1.000000" stroke="none" 
	d="
M326.863983,616.000122 
	C326.903442,610.674377 326.790344,605.841736 327.008881,601.024170 
	C327.693298,585.933838 335.332092,577.597046 350.324188,576.342224 
	C355.541565,575.905579 361.008026,576.442932 366.149109,577.533264 
	C375.428436,579.501343 382.485382,587.805542 382.806000,597.565491 
	C383.253510,611.187927 383.385559,624.858826 382.736237,638.465332 
	C382.323792,647.108032 376.862549,653.219116 368.912781,656.502075 
	C359.772583,660.276550 350.289337,660.226868 341.172058,656.603699 
	C332.739319,653.252563 328.018219,646.532532 327.379242,637.445374 
	C326.889801,630.485962 327.012634,623.483398 326.863983,616.000122 
M350.133759,641.127991 
	C352.382690,642.070557 355.083435,644.241272 356.758911,643.624939 
	C358.590485,642.951172 360.546448,639.723877 360.595337,637.567627 
	C360.899902,624.133545 360.766357,610.686646 360.585052,597.246582 
	C360.539764,593.888672 359.283356,590.894043 355.101044,590.935791 
	C350.806091,590.978760 349.305145,593.983643 349.201477,597.565186 
	C348.961334,605.863037 348.930115,614.172302 349.049744,622.473511 
	C349.135529,628.426086 349.602631,634.373169 350.133759,641.127991 
z"/>
<path fill="#355360" opacity="1.000000" stroke="none" 
	d="
M551.857544,629.936768 
	C551.962219,632.912903 551.422668,635.687683 552.356079,637.816772 
	C553.256409,639.870544 555.654236,642.545837 557.436218,642.577393 
	C559.233765,642.609314 562.069519,640.035400 562.689087,638.052734 
	C563.739563,634.691223 563.405701,630.897095 563.681152,626.885803 
	C569.742554,626.885803 575.393127,626.658264 580.995850,627.074646 
	C582.138855,627.159607 583.814941,629.559021 584.037231,631.069336 
	C586.136047,645.332397 578.536926,656.145813 564.274902,658.268738 
	C558.666687,659.103577 552.600220,658.782288 547.040527,657.593506 
	C537.475891,655.548279 530.644531,647.608887 530.128418,637.740051 
	C529.469116,625.131226 529.333740,612.451172 529.843018,599.836975 
	C530.385620,586.401001 537.443848,578.833252 550.854065,576.677246 
	C555.663879,575.903992 560.826965,576.007141 565.637085,576.830505 
	C575.923645,578.591248 581.563110,584.550415 582.947693,594.705872 
	C583.998474,602.413208 584.439087,610.203735 585.209778,618.595093 
	C574.026489,618.595093 563.313599,618.595093 551.857422,618.595093 
	C551.857422,622.603760 551.857422,626.028442 551.857544,629.936768 
M563.186157,599.761169 
	C563.245483,595.773682 562.547241,592.123047 557.558350,592.078979 
	C552.801880,592.036926 552.157043,595.783386 551.889221,599.391907 
	C551.685120,602.141357 551.848694,604.918091 551.848694,608.101440 
	C554.097351,608.101440 555.726624,608.101440 557.355896,608.101440 
	C559.133362,608.101440 560.910767,608.101440 563.187561,608.101440 
	C563.187561,605.250488 563.187561,602.964111 563.186157,599.761169 
z"/>
<path fill="#365361" opacity="1.000000" stroke="none" 
	d="
M394.900330,620.999146 
	C394.901733,614.339844 394.834534,608.179321 394.919220,602.020996 
	C395.130768,586.639465 403.600311,577.444153 418.912933,576.225098 
	C422.522888,575.937683 426.251923,576.160767 429.836853,576.720703 
	C442.748962,578.737488 448.772339,585.343445 449.708740,598.306458 
	C449.935333,601.443237 449.742462,604.610291 449.742462,608.213745 
	C442.651276,608.213745 435.781738,608.213745 428.410553,608.213745 
	C427.504333,602.600586 429.967529,595.554504 422.542877,591.938171 
	C419.318359,593.732422 417.657532,596.608765 417.688202,600.630493 
	C417.778320,612.448303 417.540802,624.277466 418.045441,636.075928 
	C418.146088,638.429016 420.647705,642.206726 422.604065,642.611511 
	C425.913940,643.296143 427.529480,639.992249 427.763519,636.677795 
	C428.008759,633.204956 428.159760,629.725464 428.385437,625.642700 
	C434.580017,625.642700 440.712280,625.440674 446.806488,625.831726 
	C447.885101,625.900879 449.528320,628.364136 449.689117,629.853760 
	C451.842224,649.800171 438.071075,662.066772 417.580139,658.639526 
	C402.249390,656.075439 394.997223,647.555420 394.907776,631.987000 
	C394.887695,628.491089 394.902252,624.994934 394.900330,620.999146 
z"/>
<path fill="#355360" opacity="1.000000" stroke="none" 
	d="
M618.797363,552.915039 
	C620.211182,554.081360 621.876953,555.201050 621.948059,556.414185 
	C622.249695,561.559692 622.336426,566.750000 621.997620,571.890686 
	C621.724426,576.036194 623.110168,577.754028 627.278259,577.297424 
	C629.043518,577.104004 630.847595,577.265137 632.854248,577.265137 
	C632.854248,582.364380 632.854248,586.804077 632.854248,591.604492 
	C629.456970,591.940430 626.068787,592.275513 622.104370,592.667542 
	C622.104370,600.394409 622.095398,607.835388 622.107239,615.276306 
	C622.116516,621.105347 622.159485,626.934448 622.172729,632.763489 
	C622.183167,637.358521 624.320251,640.125122 629.049011,640.062256 
	C633.954041,639.997131 636.054810,642.073730 635.702148,647.010864 
	C635.455750,650.459839 635.654663,653.940613 635.654663,658.513794 
	C627.089294,658.041321 618.989380,658.022522 611.016113,657.008423 
	C605.433105,656.298340 601.812256,652.273865 600.931274,646.647339 
	C600.059509,641.079346 599.512268,635.418274 599.384155,629.785217 
	C599.138123,618.964661 599.240479,608.134827 599.311035,597.309570 
	C599.327576,594.773560 599.045288,593.060425 596.093872,592.130676 
	C591.401123,590.652283 589.040222,581.990784 592.419617,578.437256 
	C593.668518,577.123901 596.317017,577.141479 598.733459,576.432922 
	C598.733459,569.011780 598.733459,561.391663 598.733459,552.911438 
	C605.498535,552.911438 611.907166,552.911438 618.797363,552.915039 
z"/>
<path fill="#355360" opacity="1.000000" stroke="none" 
	d="
M905.845337,604.921997 
	C900.478088,616.942017 895.258179,628.612061 889.690613,641.059204 
	C897.332092,641.059204 904.347412,641.059204 911.709717,641.059204 
	C911.709717,646.592346 911.709717,651.493591 911.709717,656.800049 
	C896.753906,656.800049 881.736511,656.800049 866.462463,656.800049 
	C865.324707,648.279114 867.031311,640.547974 870.587830,632.988342 
	C876.393555,620.647888 881.912659,608.172485 887.525757,595.741943 
	C887.711670,595.330322 887.605103,594.786560 887.662964,593.848999 
	C881.467346,593.848999 875.368652,593.848999 868.809937,593.848999 
	C868.809937,588.393066 868.809937,583.373535 868.809937,577.862671 
	C882.435303,577.862671 895.898315,577.772156 909.353699,578.051331 
	C910.327942,578.071533 911.902161,580.705505 912.081177,582.253418 
	C913.028503,590.441650 909.219788,597.450500 905.845337,604.921997 
z"/>
<path fill="#33525F" opacity="1.000000" stroke="none" 
	d="
M832.917297,621.000000 
	C832.917297,606.527283 832.917297,592.554504 832.917297,578.216553 
	C840.297180,578.216553 847.327820,578.216553 854.637939,578.216553 
	C854.637939,604.508240 854.637939,630.565918 854.637939,656.906677 
	C847.424744,656.906677 840.506226,656.906677 832.917297,656.906677 
	C832.917297,645.037903 832.917297,633.268982 832.917297,621.000000 
z"/>
<path fill="#475964" opacity="1.000000" stroke="none" 
	d="
M838.178101,548.100464 
	C843.468506,548.140320 848.282593,548.173157 853.096252,548.237671 
	C853.386475,548.241516 853.673279,548.497498 854.278809,548.788696 
	C854.278809,553.366089 854.278809,558.088928 854.278809,563.599670 
	C846.993103,563.046204 839.959473,562.511902 832.551453,561.949097 
	C832.551453,557.403381 832.551453,553.180481 832.551453,548.356934 
	C834.199951,548.274841 835.950806,548.187622 838.178101,548.100464 
z"/>
<path fill="#E9EAEA" opacity="1.000000" stroke="none" 
	d="
M235.854401,209.215302 
	C235.688889,212.479218 235.619614,215.306320 235.322327,218.109238 
	C234.475906,226.089615 231.228638,229.811981 223.333572,232.070694 
	C222.237656,232.384216 221.157104,232.751434 219.953140,233.130417 
	C219.953140,236.388687 219.953140,239.514862 219.953140,243.304169 
	C225.261429,241.971741 230.271271,240.714233 235.956757,239.287125 
	C235.956757,241.768036 235.956772,243.553818 235.956741,245.339615 
	C235.956467,260.986572 235.973709,276.633575 235.932190,292.280426 
	C235.927383,294.089966 235.827087,295.959564 235.369324,297.695343 
	C234.350159,301.559692 231.509537,303.524994 227.664597,303.580841 
	C224.033630,303.633606 220.677841,301.932312 220.176682,298.252411 
	C219.399536,292.545959 216.267487,291.995911 211.481812,292.273743 
	C206.868958,292.541534 202.650955,291.046448 199.954910,286.687195 
	C195.679810,279.774719 197.030884,272.717438 203.720566,267.893646 
	C205.062881,266.925720 206.446091,266.014496 208.036880,264.921570 
	C207.351456,261.706451 206.669449,258.507324 205.851120,254.668823 
	C203.126205,256.114685 200.837616,257.317139 198.560349,258.540741 
	C196.378403,259.713104 194.208206,260.907410 192.111877,262.049011 
	C186.534622,256.539917 184.778946,247.820999 188.312668,240.818665 
	C190.588852,236.308228 192.166367,231.926025 192.594345,226.768387 
	C193.497070,215.889175 197.158417,212.538269 208.107788,210.827606 
	C209.581070,210.597427 211.060486,210.406433 212.867157,210.150543 
	C213.418671,207.624115 213.882736,205.036758 214.556778,202.505295 
	C216.016449,197.023300 220.401276,193.677322 225.381775,194.111694 
	C231.815201,194.672821 234.745926,197.670715 235.369080,204.309616 
	C235.508728,205.797394 235.686386,207.281601 235.854401,209.215302 
z"/>
<path fill="#E8E9E9" opacity="1.000000" stroke="none" 
	d="
M270.860504,292.027100 
	C266.324829,291.965424 263.293182,292.513062 262.557159,297.846558 
	C262.022034,301.724030 258.490417,303.861481 254.258957,303.422760 
	C250.162735,302.998077 247.539047,300.741943 246.860291,296.541809 
	C246.674957,295.394989 246.490524,294.230621 246.489014,293.074066 
	C246.465729,275.270477 246.472778,257.466888 246.472778,239.094284 
	C250.132797,240.143921 253.364731,241.556473 256.693451,241.842316 
	C258.674591,242.012436 262.160187,240.835449 262.575378,239.512650 
	C263.312592,237.163864 264.251709,233.980591 260.221649,232.089813 
	C247.062958,225.916183 243.650284,218.224426 246.943665,203.741959 
	C248.304703,197.756897 252.177490,194.235687 257.493347,194.150055 
	C262.902100,194.062927 267.133698,197.791534 268.446228,203.893326 
	C268.861969,205.825928 269.095764,207.797653 269.447449,209.965073 
	C271.858978,210.330765 274.143433,210.648041 276.417572,211.027359 
	C284.101990,212.309113 288.698059,217.121567 290.224487,224.787872 
	C291.281921,230.098846 292.667542,235.367096 294.273621,240.540451 
	C296.230469,246.843613 296.552582,252.973785 293.421661,258.942352 
	C290.596130,264.328827 289.276733,264.704834 283.802429,262.394623 
	C276.263397,259.213104 269.002197,258.674408 262.511566,264.808990 
	C265.766174,271.596375 266.514038,272.030029 272.947723,270.906158 
	C278.084259,270.008820 281.736359,272.165436 283.412231,277.085480 
	C285.205353,282.349792 283.133392,288.398621 278.528595,290.327545 
	C276.282135,291.268585 273.714050,291.441864 270.860504,292.027100 
z"/>
<path fill="#E7E8E8" opacity="1.000000" stroke="none" 
	d="
M722.894165,603.000000 
	C722.633667,613.641235 722.617920,623.797058 722.017700,633.918152 
	C721.676819,639.666809 718.336243,642.312439 713.328125,641.988037 
	C708.615723,641.682739 706.041138,638.710754 705.991516,633.118530 
	C705.811096,612.799561 705.644592,592.480042 705.632263,572.160522 
	C705.629639,567.879333 705.581055,563.256348 710.826599,561.332458 
	C716.436951,559.274719 720.979553,561.703003 721.893127,567.621033 
	C722.523254,571.702881 722.771484,575.869385 722.852478,580.004639 
	C722.999390,587.500488 722.894165,595.001282 722.894165,603.000000 
z"/>
<path fill="#E7E8E8" opacity="1.000000" stroke="none" 
	d="
M273.420685,563.562439 
	C284.520386,558.233215 292.954224,563.019104 293.803864,574.671570 
	C293.947906,576.647095 293.972900,578.657043 293.788849,580.626404 
	C293.000458,589.062683 289.047913,592.736511 280.566742,593.006104 
	C278.419617,593.074402 276.268433,593.016296 273.317200,593.016296 
	C273.317200,583.146912 273.317200,573.577271 273.420685,563.562439 
z"/>
<path fill="#E7E8E8" opacity="1.000000" stroke="none" 
	d="
M350.016693,640.725342 
	C349.602631,634.373169 349.135529,628.426086 349.049744,622.473511 
	C348.930115,614.172302 348.961334,605.863037 349.201477,597.565186 
	C349.305145,593.983643 350.806091,590.978760 355.101044,590.935791 
	C359.283356,590.894043 360.539764,593.888672 360.585052,597.246582 
	C360.766357,610.686646 360.899902,624.133545 360.595337,637.567627 
	C360.546448,639.723877 358.590485,642.951172 356.758911,643.624939 
	C355.083435,644.241272 352.382690,642.070557 350.016693,640.725342 
z"/>
<path fill="#E7E8E8" opacity="1.000000" stroke="none" 
	d="
M563.186890,600.219482 
	C563.187561,602.964111 563.187561,605.250488 563.187561,608.101440 
	C560.910767,608.101440 559.133362,608.101440 557.355896,608.101440 
	C555.726624,608.101440 554.097351,608.101440 551.848694,608.101440 
	C551.848694,604.918091 551.685120,602.141357 551.889221,599.391907 
	C552.157043,595.783386 552.801880,592.036926 557.558350,592.078979 
	C562.547241,592.123047 563.245483,595.773682 563.186890,600.219482 
z"/>
</svg>